<svg xmlns="http://www.w3.org/2000/svg" xmlns:xlink="http://www.w3.org/1999/xlink" xmlns:lucid="lucid" width="1415.03" height="855.96"><g transform="translate(0 0)" lucid:page-tab-id="0_0"><path d="M0 0h1415.03v855.96H0z" fill="#fff"/><path d="M440 180h160v120H440z" stroke="#333" fill="#fff"/><use xlink:href="#a" transform="matrix(1,0,0,1,445,185) translate(22.370370370370367 57.13194444444444)"/><use xlink:href="#b" transform="matrix(1,0,0,1,445,185) translate(83.68518518518519 57.13194444444444)"/><path d="M440 680h160v120H440z" stroke="#333" fill="#fff"/><use xlink:href="#c" transform="matrix(1,0,0,1,445,685) translate(15.932098765432094 39.94444444444444)"/><use xlink:href="#d" transform="matrix(1,0,0,1,445,685) translate(65.14814814814815 39.94444444444444)"/><use xlink:href="#e" transform="matrix(1,0,0,1,445,685) translate(74.61111111111111 39.94444444444444)"/><use xlink:href="#f" transform="matrix(1,0,0,1,445,685) translate(122.87654320987656 39.94444444444444)"/><use xlink:href="#g" transform="matrix(1,0,0,1,445,685) translate(8.5 58.611111111111114)"/><use xlink:href="#h" transform="matrix(1,0,0,1,445,685) translate(79.32098765432099 58.611111111111114)"/><use xlink:href="#i" transform="matrix(1,0,0,1,445,685) translate(128.53703703703704 58.611111111111114)"/><use xlink:href="#j" transform="matrix(1,0,0,1,445,685) translate(49.138888888888886 77.27777777777779)"/><path d="M980 680h160v120H980z" stroke="#333" fill="#fff"/><use xlink:href="#k" transform="matrix(1,0,0,1,985,685) translate(46.092592592592595 57.13194444444444)"/><path d="M980 180h160v120H980z" stroke="#333" fill="#fff"/><use xlink:href="#l" transform="matrix(1,0,0,1,985,185) translate(0.7870370370370381 50.25694444444444)"/><use xlink:href="#d" transform="matrix(1,0,0,1,985,185) translate(54.28086419753087 50.25694444444444)"/><use xlink:href="#m" transform="matrix(1,0,0,1,985,185) translate(63.74382716049383 50.25694444444444)"/><use xlink:href="#n" transform="matrix(1,0,0,1,985,185) translate(96.54012345679013 50.25694444444444)"/><use xlink:href="#o" transform="matrix(1,0,0,1,985,185) translate(15.910493827160487 68.92361111111111)"/><use xlink:href="#p" transform="matrix(1,0,0,1,985,185) translate(40.0216049382716 68.92361111111111)"/><use xlink:href="#q" transform="matrix(1,0,0,1,985,185) translate(109.02777777777777 68.92361111111111)"/><path d="M200 60c0 11.05-8.95 20-20 20s-20-8.95-20-20 8.95-20 20-20 20 8.95 20 20z" stroke="#333"/><path d="M201 60l133.8.22 28.55 1.76 20.8 2.17 16.33 2.4 13.34 2.53L425 71.7l9.55 2.66 8.27 2.68 7.27 2.7 6.42 2.7 5.75 2.7 5.17 2.7 4.7 2.7 4.26 2.72 3.9 2.72 3.6 2.73 3.33 2.75 3.07 2.77 2.86 2.8 2.67 2.84 2.5 2.9 2.32 2.93 2.18 3 2.04 3.06 1.92 3.17 1.78 3.26 1.67 3.36 1.56 3.5 1.46 3.65 1.32 3.82 1.2 4 1.1 4.22.94 4.47.8 4.76.4 3.2" stroke="#333" fill="none"/><path d="M201.02 59.5v1h-.58l.06-.48-.02-.52zM519.9 177.88l-5.47-13.96 9.26-.55z" fill="#333"/><path d="M520 179.5l-6.3-16.04 10.64-.63zm-4.85-15.12l4.66 11.9 3.23-12.37z" fill="#333"/><use xlink:href="#r" transform="matrix(1,0,0,1,228.53349078565543,20.471162481640334) translate(0 12.444444444444446)"/><use xlink:href="#s" transform="matrix(1,0,0,1,228.53349078565543,20.471162481640334) translate(58.72222222222222 12.444444444444446)"/><use xlink:href="#t" transform="matrix(1,0,0,1,228.53349078565543,20.471162481640334) translate(134.64197530864197 12.444444444444446)"/><use xlink:href="#h" transform="matrix(1,0,0,1,228.53349078565543,20.471162481640334) translate(163.1172839506173 12.444444444444446)"/><use xlink:href="#u" transform="matrix(1,0,0,1,228.53349078565543,20.471162481640334) translate(212.33333333333334 12.444444444444446)"/><use xlink:href="#v" transform="matrix(1,0,0,1,228.53349078565543,20.471162481640334) translate(220.67283950617286 12.444444444444446)"/><use xlink:href="#w" transform="matrix(1,0,0,1,228.53349078565543,20.471162481640334) translate(0 31.111111111111118)"/><use xlink:href="#x" transform="matrix(1,0,0,1,228.53349078565543,20.471162481640334) translate(40.48765432098766 31.111111111111118)"/><use xlink:href="#y" transform="matrix(1,0,0,1,228.53349078565543,20.471162481640334) translate(75.91975308641976 31.111111111111118)"/><use xlink:href="#z" transform="matrix(1,0,0,1,228.53349078565543,20.471162481640334) translate(96.61728395061729 31.111111111111118)"/><use xlink:href="#A" transform="matrix(1,0,0,1,228.53349078565543,20.471162481640334) translate(175.99382716049382 31.111111111111118)"/><use xlink:href="#B" transform="matrix(1,0,0,1,228.53349078565543,20.471162481640334) translate(196.73456790123456 31.111111111111118)"/><use xlink:href="#C" transform="matrix(1,0,0,1,228.53349078565543,20.471162481640334) translate(245.9506172839506 31.111111111111118)"/><use xlink:href="#D" transform="matrix(1,0,0,1,228.53349078565543,20.471162481640334) translate(271.7037037037037 31.111111111111118)"/><use xlink:href="#E" transform="matrix(1,0,0,1,228.53349078565543,20.471162481640334) translate(293.30864197530866 31.111111111111118)"/><path d="M182.12 329.83l4 64.9 4.86 46.72 5.36 36.46 5.64 29.67 5.8 24.8 5.9 21.13 5.92 18.28 5.94 16 5.95 14.16 5.92 12.62 5.93 11.34 5.92 10.26 5.9 9.33 5.94 8.52 5.95 7.83 5.97 7.22 6.02 6.68 6.07 6.2 6.15 5.77 6.24 5.4 6.33 5 6.47 4.7 6.62 4.4 6.8 4.13 6.98 3.84 7.23 3.58 7.5 3.33 7.77 3.1 8.13 2.82 8.52 2.57 8.96 2.3 9.5 2 10.04 1.7 10.72 1.35 11.5.97 2.6.1-.06 1-2.6-.1-11.54-.97-10.77-1.36-10.1-1.7-9.5-2.03-9.02-2.32-8.56-2.58-8.17-2.84-7.82-3.1-7.53-3.35-7.26-3.6-7.03-3.87-6.82-4.12-6.65-4.43-6.5-4.72-6.38-5.05-6.26-5.4-6.2-5.8-6.1-6.24-6.03-6.72-6-7.25-5.97-7.87-5.95-8.56-5.94-9.36-5.93-10.3-5.94-11.38-5.96-12.66-5.96-14.2-5.95-16.03-5.94-18.3-5.9-21.18-5.8-24.84-5.65-29.7-5.36-36.5-4.88-46.76-4-64.96-.28-43.4h1zm-.52-80.7h-1L179.5 81h1z" fill="#333"/><path d="M179.98 80.5l.52-.02v.54h-1v-.58zM437.88 739.95l-14.4 4.22.28-9.27z" fill="#333"/><path d="M439.5 740l-16.53 4.84.3-10.64zm-15.5 3.5l12.27-3.6-12.03-4.3z" fill="#333"/><use xlink:href="#r" transform="matrix(1,0,0,1,56.213354234331106,249.12098207064554) translate(0 12.444444444444446)"/><use xlink:href="#s" transform="matrix(1,0,0,1,56.213354234331106,249.12098207064554) translate(58.72222222222222 12.444444444444446)"/><use xlink:href="#h" transform="matrix(1,0,0,1,56.213354234331106,249.12098207064554) translate(134.64197530864197 12.444444444444446)"/><use xlink:href="#u" transform="matrix(1,0,0,1,56.213354234331106,249.12098207064554) translate(183.85802469135803 12.444444444444446)"/><use xlink:href="#v" transform="matrix(1,0,0,1,56.213354234331106,249.12098207064554) translate(192.19753086419752 12.444444444444446)"/><use xlink:href="#F" transform="matrix(1,0,0,1,56.213354234331106,249.12098207064554) translate(0 31.111111111111118)"/><use xlink:href="#G" transform="matrix(1,0,0,1,56.213354234331106,249.12098207064554) translate(38.88888888888889 31.111111111111118)"/><use xlink:href="#H" transform="matrix(1,0,0,1,56.213354234331106,249.12098207064554) translate(75.91975308641976 31.111111111111118)"/><use xlink:href="#I" transform="matrix(1,0,0,1,56.213354234331106,249.12098207064554) translate(126.7777777777778 31.111111111111118)"/><use xlink:href="#J" transform="matrix(1,0,0,1,56.213354234331106,249.12098207064554) translate(164.80246913580248 31.111111111111118)"/><use xlink:href="#K" transform="matrix(1,0,0,1,56.213354234331106,249.12098207064554) translate(195.0493827160494 31.111111111111118)"/><path d="M756.38 202.7l-34.95 13.06-25.52 8.32-20.37 5.7-17 4-14.58 2.8-12.75 1.9-11.3 1.18-10.18.64-8.7.2-.03-1 8.68-.2 10.12-.64 11.27-1.2 12.7-1.87 14.55-2.8 16.96-3.98 20.34-5.7 25.48-8.3 34.9-13.04 20.74-8.86h2.54zm253.1-92.8l3.3.2 2.97.3 2.72.4 2.5.5 2.3.53 2.15.6 2 .65 1.9.7 1.77.75 1.67.8 1.6.82 1.53.9 1.47.92 1.4.97 1.36 1.03 1.3 1.1 1.28 1.13 1.25 1.2 1.2 1.3 1.17 1.35 1.15 1.45 1.12 1.54 1.08 1.65 1.08 1.77 1.05 1.9 1.04 2.1 1 2.25 1 2.48.94 2.73.9 3.03.88 3.37.8 3.8.73 4.3.58 4.65-1 .13-.58-4.63-.72-4.26-.8-3.74-.85-3.33-.9-3-.94-2.68-.97-2.44-1-2.2-1-2.05-1.04-1.88-1.06-1.74-1.07-1.62-1.1-1.5-1.12-1.4-1.14-1.34-1.17-1.25-1.2-1.17-1.24-1.1-1.3-1.07-1.3-1-1.4-.96-1.42-.9-1.5-.87-1.55-.82-1.65-.76-1.74-.73-1.84-.68-1.97-.64-2.1-.58-2.27-.53-2.46-.47-2.68-.4-2.94-.3-3.25-.2-3.62-.08-4.08.08-4.65.3-5.37.57-6.3.93-7.53 1.44-9.26 2.18-11.8 3.3-15.94 5.22-24.15 9.03-80.58 34.76-13.16 5.62h-2.55l15.33-6.54 80.6-34.76 24.2-9.05 16-5.22 11.83-3.32 9.3-2.2 7.58-1.44 6.34-.94 5.4-.58 4.7-.3 4.13-.08zM601.03 240.5h-.53v-1h.5zM1059.92 177.88l-5.35-14 9.26-.48z" fill="#333"/><path d="M1060 179.5l-6.14-16.1 10.64-.53zm-4.7-15.17l4.54 11.94 3.33-12.33z" fill="#333"/><g><use xlink:href="#L" transform="matrix(1,0,0,1,706.4060719130724,174.25261081130816) translate(0 12.444444444444446)"/></g><path d="M1060.5 301.02l-.15 6.74-.38 6.15-.55 5.3-.68 4.6-.77 4.03-.84 3.57-.9 3.2-.92 2.87-.95 2.6-1 2.36-1.02 2.17-1.04 2-1.07 1.84-1.1 1.7-1.1 1.6-1.13 1.5-1.16 1.4-1.2 1.32-1.2 1.24-1.26 1.18-1.3 1.1-1.32 1.07-1.38 1-1.44.95-1.5.9-1.56.87-1.64.8-1.73.78-1.82.73-1.94.67-2.07.63-2.23.57-2.4.5-2.6.45-2.85.36-3.14.26-3.47.14h-3.9l-4.4-.18-5.02-.43-5.84-.74-6.9-1.17-8.38-1.78-10.43-2.7-13.63-4.12-19.26-6.74-26.2-10.47h2.7l23.85 9.52 19.2 6.73 13.6 4.12 10.4 2.68 8.32 1.77 6.87 1.17 5.8.74 4.98.42 4.35.18h3.84l3.43-.14 3.1-.26 2.8-.35 2.55-.42 2.36-.5 2.2-.56 2.03-.62 1.9-.66 1.8-.7 1.68-.76 1.62-.8 1.53-.84 1.46-.88 1.4-.93 1.35-.98 1.3-1.03 1.26-1.1 1.23-1.13 1.2-1.23 1.15-1.28 1.13-1.38 1.12-1.46 1.1-1.56 1.05-1.68 1.04-1.8 1.04-1.97 1-2.12.98-2.33.95-2.56.92-2.83.86-3.14.83-3.54.75-4 .67-4.55.55-5.24.38-6.12.14-6.7zm-435.12-60.16l12 1.52 13.6 2.3 15.7 3.36 18.54 4.77 22.64 6.87 29.37 10.26 124.84 53.24h-2.55l-122.65-52.3-29.32-10.25-22.6-6.85-18.5-4.76-15.66-3.33-13.57-2.3-11.95-1.52-8.45-.7.08-1z" fill="#333"/><path d="M1060.5 301.03l-1-.02v-.5h1zM616.2 245.26l-14.08-5.2 14.43-4.07z" fill="#333"/><path d="M616.66 245.96L600.5 240l16.58-4.68zm-12.93-5.83l12 4.42.3-7.9z" fill="#333"/><g><use xlink:href="#M" transform="matrix(1,0,0,1,815.3567544728769,323.16734207278597) translate(0 12.444444444444446)"/><use xlink:href="#N" transform="matrix(1,0,0,1,815.3567544728769,323.16734207278597) translate(37.117283950617285 12.444444444444446)"/><use xlink:href="#O" transform="matrix(1,0,0,1,815.3567544728769,323.16734207278597) translate(78.55555555555556 12.444444444444446)"/></g><path d="M520.5 663.12h-1v-206.5h1zm0-225.18h-1V301h1z" fill="#333"/><path d="M520.5 301.02h-1v-.52h1zM520 677.88l-4.64-14.26h9.28z" fill="#333"/><path d="M520 679.5l-5.32-16.38h10.64zm-3.95-15.38l3.95 12.14 3.95-12.14z" fill="#333"/><g><use xlink:href="#P" transform="matrix(1,0,0,1,464.95061728395075,437.9427784766707) translate(0 12.444444444444446)"/></g><path d="M740.96 740.5H601v-1h139.96zm222.16 0H839.05v-1h124.07z" fill="#333"/><path d="M601.02 740.5h-.52v-1h.52zM977.88 740l-14.26 4.64v-9.28z" fill="#333"/><path d="M979.5 740l-16.38 5.32v-10.64zm-15.38 3.95l12.14-3.95-12.14-3.95z" fill="#333"/><g><use xlink:href="#Q" transform="matrix(1,0,0,1,740.9596325950321,730.6666666666666) translate(0 12.444444444444446)"/></g><path d="M979 767.6v1l-133.9-.5v-1zm-244.12-.88v1l-118-.42v-1z" fill="#333"/><path d="M979.5 767.6v1h-.52v-1zM616.37 771.44l-14.25-4.7 14.28-4.57z" fill="#333"/><path d="M616.86 772.13l-16.36-5.38 16.4-5.27zm-13.12-5.37l12.13 4 .03-7.9z" fill="#333"/><g><use xlink:href="#R" transform="matrix(1,0,0,1,734.8829599975606,758.0843527425312) translate(0 12.444444444444446)"/></g><path d="M979.5 678.8l-.7.7L826.5 528.3h1.42zM809.15 509.6h-1.42L609.13 312.4l.7-.7z" fill="#333"/><path d="M980.2 679.5h-.7v.7l-.72-.7.7-.72zM612.4 308.4l-6.54 6.58-6.86-13.34z" fill="#333"/><path d="M613.23 308.27l-7.5 7.55-7.87-15.32zm-7.24 5.87l5.55-5.6-11.4-5.76z" fill="#333"/><g><use xlink:href="#S" transform="matrix(1,0,0,1,761.4471248926983,509.6224478347926) translate(0 12.444444444444446)"/></g><path d="M1320.86 760.05v.13l-.02.18-.04.23-.06.3-.13.45-.22.67-.44 1.1-.93 1.93-1.98 3.6-4.07 6.42-6.73 9.4-8.5 10.48-8.78 9.65-8.2 8-7.33 6.35-6.45 4.97-5.68 3.85-5.03 3-4.48 2.3-4.03 1.8-3.65 1.37-3.34 1.04-3.07.75-1.8.35-2.53.38-2.6.25-2.67.12-2.76-.02-2.87-.18-3.02-.35-3.2-.54-3.4-.76-3.67-1.02-4-1.35-4.44-1.75-5-2.3-5.8-3.04-7.12-4.2-10.13-6.77-18.02-12.82.58-.8 18 12.8 10.12 6.76 7.05 4.18 5.76 3.02 4.95 2.27 4.4 1.73 3.94 1.33 3.63 1 3.35.75 3.15.53 2.97.34 2.82.18 2.7.02 2.63-.1 2.54-.25 2.5-.37 1.75-.34 3.02-.75 3.3-1 3.58-1.35 3.97-1.77 4.43-2.3 4.98-2.95 5.64-3.83 6.4-4.92 7.3-6.32 8.15-7.96 8.75-9.6 8.45-10.45 6.7-9.34 4.03-6.36 1.97-3.55.9-1.9.43-1.03.2-.6.1-.4.07-.26.02-.16v-.12l.02-.1.1-2.6h1zM1275.6 640.4l2.2.15 2 .2 1.84.28 1.7.32 1.55.37 1.45.4 1.35.44.62.23 1.28.5 1.27.56 1.24.6 1.23.7 1.2.72 1.2.8 1.2.88 1.18.95 1.2 1.05 1.18 1.13 1.2 1.24 1.2 1.35 1.2 1.5 1.22 1.65 1.23 1.82 1.26 2.04 1.26 2.27 1.28 2.56 1.3 2.9 1.33 3.3 1.32 3.78 1.32 4.36 1.3 5.07 1.27 5.97 1.17 7.04.5 3.93h-1.02l-.47-3.77-1.17-7-1.25-5.92-1.3-5.03-1.3-4.3-1.32-3.75-1.3-3.25-1.3-2.86-1.26-2.52-1.25-2.24-1.23-2-1.22-1.8-1.2-1.6-1.18-1.46-1.17-1.33-1.16-1.2-1.15-1.12-1.16-1-1.15-.93-1.14-.85-1.16-.77-1.18-.72-1.18-.64-1.2-.6-1.22-.54-1.25-.5-.6-.2-1.3-.44-1.42-.4-1.53-.35-1.64-.3-1.8-.28-1.96-.2-2.16-.14-2.4-.04-2.68.06-3.03.2-3.43.36-3.96.58-4.6.88-5.42 1.28-6.5 1.82-8 2.6-10.13 3.8-13.53 5.7-53.2 26.3-8.28 3.95-3.4 1.42-1.93.72-1.27.42-.9.25-.65.16-.5.1-.4.06-.3.03-.1-1 .26-.02.38-.06.47-.1.6-.13.86-.24 1.23-.4 1.9-.7 3.35-1.43 8.25-3.92 53.22-26.32 13.6-5.73 10.15-3.8 8.04-2.6 6.55-1.85 5.46-1.3 4.64-.87 4-.6 3.47-.36 3.06-.2 2.73-.06z" fill="#333"/><path d="M1141.02 692.07h-.52v-1h.5zM1156.76 799.34l-4.2 8.27-10.62-10.6z" fill="#333"/><path d="M1157.52 798.95l-4.83 9.5-12.2-12.17zm-5.1 7.82l3.58-7.04-12.62-2z" fill="#333"/><g><use xlink:href="#T" transform="matrix(1,0,0,1,1253.4494680456505,701.4300451014409) translate(20.270432098765426 12.444444444444446)"/><use xlink:href="#U" transform="matrix(1,0,0,1,1253.4494680456505,701.4300451014409) translate(64.3012962962963 12.444444444444446)"/><use xlink:href="#V" transform="matrix(1,0,0,1,1253.4494680456505,701.4300451014409) translate(85.90623456790124 12.444444444444446)"/><use xlink:href="#W" transform="matrix(1,0,0,1,1253.4494680456505,701.4300451014409) translate(6.443271604938261 31.111111111111118)"/><use xlink:href="#X" transform="matrix(1,0,0,1,1253.4494680456505,701.4300451014409) translate(36.69018518518518 31.111111111111118)"/><use xlink:href="#Y" transform="matrix(1,0,0,1,1253.4494680456505,701.4300451014409) translate(53.974135802469135 31.111111111111118)"/><use xlink:href="#Z" transform="matrix(1,0,0,1,1253.4494680456505,701.4300451014409) translate(0.0049999999999954525 49.777777777777786)"/><use xlink:href="#aa" transform="matrix(1,0,0,1,1253.4494680456505,701.4300451014409) translate(48.35685185185185 49.777777777777786)"/></g><path d="M440 680.34h-1v-105.6h1zm0-124.27h-1v-239.2h1zM439.5 683.84h-.5v-3.5h.5zM444.14 316.38h-9.28l4.64-14.26z" fill="#333"/><path d="M444.82 316.88h-10.64l5.32-16.38zm-9.27-1h7.9l-3.95-12.14z" fill="#333"/><g><use xlink:href="#ab" transform="matrix(1,0,0,1,388.2962962962963,556.0662943484251) translate(0 12.444444444444446)"/></g><defs><path fill="#333" d="M30-248c87 1 191-15 191 75 0 78-77 80-158 76V0H30v-248zm33 125c57 0 124 11 124-50 0-59-68-47-124-48v98" id="ac"/><path fill="#333" d="M100-194c63 0 86 42 84 106H49c0 40 14 67 53 68 26 1 43-12 49-29l28 8c-11 28-37 45-77 45C44 4 14-33 15-96c1-61 26-98 85-98zm52 81c6-60-76-77-97-28-3 7-6 17-6 28h103" id="ad"/><path fill="#333" d="M117-194c89-4 53 116 60 194h-32v-121c0-31-8-49-39-48C34-167 62-67 57 0H25l-1-190h30c1 10-1 24 2 32 11-22 29-35 61-36" id="ae"/><path fill="#333" d="M85-194c31 0 48 13 60 33l-1-100h32l1 261h-30c-2-10 0-23-3-31C134-8 116 4 85 4 32 4 16-35 15-94c0-66 23-100 70-100zm9 24c-40 0-46 34-46 75 0 40 6 74 45 74 42 0 51-32 51-76 0-42-9-74-50-73" id="af"/><path fill="#333" d="M24-231v-30h32v30H24zM24 0v-190h32V0H24" id="ag"/><path fill="#333" d="M177-190C167-65 218 103 67 71c-23-6-38-20-44-43l32-5c15 47 100 32 89-28v-30C133-14 115 1 83 1 29 1 15-40 15-95c0-56 16-97 71-98 29-1 48 16 59 35 1-10 0-23 2-32h30zM94-22c36 0 50-32 50-73 0-42-14-75-50-75-39 0-46 34-46 75s6 73 46 73" id="ah"/><g id="a"><use transform="matrix(0.04320987654320988,0,0,0.04320987654320988,0,0)" xlink:href="#ac"/><use transform="matrix(0.04320987654320988,0,0,0.04320987654320988,10.370370370370372,0)" xlink:href="#ad"/><use transform="matrix(0.04320987654320988,0,0,0.04320987654320988,19.01234567901235,0)" xlink:href="#ae"/><use transform="matrix(0.04320987654320988,0,0,0.04320987654320988,27.654320987654323,0)" xlink:href="#af"/><use transform="matrix(0.04320987654320988,0,0,0.04320987654320988,36.2962962962963,0)" xlink:href="#ag"/><use transform="matrix(0.04320987654320988,0,0,0.04320987654320988,39.70987654320988,0)" xlink:href="#ae"/><use transform="matrix(0.04320987654320988,0,0,0.04320987654320988,48.351851851851855,0)" xlink:href="#ah"/></g><path fill="#333" d="M114-163C36-179 61-72 57 0H25l-1-190h30c1 12-1 29 2 39 6-27 23-49 58-41v29" id="ai"/><path fill="#333" d="M100-194c62-1 85 37 85 99 1 63-27 99-86 99S16-35 15-95c0-66 28-99 85-99zM99-20c44 1 53-31 53-75 0-43-8-75-51-75s-53 32-53 75 10 74 51 75" id="aj"/><path fill="#333" d="M101-234c-31-9-42 10-38 44h38v23H63V0H32v-167H5v-23h27c-7-52 17-82 69-68v24" id="ak"/><path fill="#333" d="M24 0v-261h32V0H24" id="al"/><g id="b"><use transform="matrix(0.04320987654320988,0,0,0.04320987654320988,0,0)" xlink:href="#ac"/><use transform="matrix(0.04320987654320988,0,0,0.04320987654320988,10.370370370370372,0)" xlink:href="#ai"/><use transform="matrix(0.04320987654320988,0,0,0.04320987654320988,15.512345679012347,0)" xlink:href="#aj"/><use transform="matrix(0.04320987654320988,0,0,0.04320987654320988,24.154320987654323,0)" xlink:href="#ak"/><use transform="matrix(0.04320987654320988,0,0,0.04320987654320988,28.47530864197531,0)" xlink:href="#ag"/><use transform="matrix(0.04320987654320988,0,0,0.04320987654320988,31.888888888888893,0)" xlink:href="#al"/><use transform="matrix(0.04320987654320988,0,0,0.04320987654320988,35.302469135802475,0)" xlink:href="#ad"/></g><path fill="#333" d="M233-177c-1 41-23 64-60 70L243 0h-38l-65-103H63V0H30v-248c88 3 205-21 203 71zM63-129c60-2 137 13 137-47 0-61-80-42-137-45v92" id="am"/><path fill="#333" d="M141-36C126-15 110 5 73 4 37 3 15-17 15-53c-1-64 63-63 125-63 3-35-9-54-41-54-24 1-41 7-42 31l-33-3c5-37 33-52 76-52 45 0 72 20 72 64v82c-1 20 7 32 28 27v20c-31 9-61-2-59-35zM48-53c0 20 12 33 32 33 41-3 63-29 60-74-43 2-92-5-92 41" id="an"/><path fill="#333" d="M179-190L93 31C79 59 56 82 12 73V49c39 6 53-20 64-50L1-190h34L92-34l54-156h33" id="ao"/><g id="c"><use transform="matrix(0.04320987654320988,0,0,0.04320987654320988,0,0)" xlink:href="#am"/><use transform="matrix(0.04320987654320988,0,0,0.04320987654320988,11.19135802469136,0)" xlink:href="#ad"/><use transform="matrix(0.04320987654320988,0,0,0.04320987654320988,19.833333333333336,0)" xlink:href="#an"/><use transform="matrix(0.04320987654320988,0,0,0.04320987654320988,28.47530864197531,0)" xlink:href="#af"/><use transform="matrix(0.04320987654320988,0,0,0.04320987654320988,37.117283950617285,0)" xlink:href="#ao"/></g><path fill="#333" d="M16-82v-28h88v28H16" id="ap"/><use transform="matrix(0.04320987654320988,0,0,0.04320987654320988,0,0)" xlink:href="#ap" id="d"/><g id="e"><use transform="matrix(0.04320987654320988,0,0,0.04320987654320988,0,0)" xlink:href="#ac"/><use transform="matrix(0.04320987654320988,0,0,0.04320987654320988,10.370370370370372,0)" xlink:href="#ai"/><use transform="matrix(0.04320987654320988,0,0,0.04320987654320988,15.512345679012347,0)" xlink:href="#aj"/><use transform="matrix(0.04320987654320988,0,0,0.04320987654320988,24.154320987654323,0)" xlink:href="#ak"/><use transform="matrix(0.04320987654320988,0,0,0.04320987654320988,28.47530864197531,0)" xlink:href="#ag"/><use transform="matrix(0.04320987654320988,0,0,0.04320987654320988,31.888888888888893,0)" xlink:href="#al"/><use transform="matrix(0.04320987654320988,0,0,0.04320987654320988,35.302469135802475,0)" xlink:href="#ad"/></g><path fill="#333" d="M135-143c-3-34-86-38-87 0 15 53 115 12 119 90S17 21 10-45l28-5c4 36 97 45 98 0-10-56-113-15-118-90-4-57 82-63 122-42 12 7 21 19 24 35" id="aq"/><g id="f"><use transform="matrix(0.04320987654320988,0,0,0.04320987654320988,0,0)" xlink:href="#ag"/><use transform="matrix(0.04320987654320988,0,0,0.04320987654320988,3.4135802469135808,0)" xlink:href="#aq"/></g><path fill="#333" d="M33 0v-38h34V0H33" id="ar"/><g id="g"><use transform="matrix(0.04320987654320988,0,0,0.04320987654320988,0,0)" xlink:href="#an"/><use transform="matrix(0.04320987654320988,0,0,0.04320987654320988,8.641975308641976,0)" xlink:href="#aq"/><use transform="matrix(0.04320987654320988,0,0,0.04320987654320988,16.419753086419753,0)" xlink:href="#aq"/><use transform="matrix(0.04320987654320988,0,0,0.04320987654320988,24.19753086419753,0)" xlink:href="#ag"/><use transform="matrix(0.04320987654320988,0,0,0.04320987654320988,27.611111111111114,0)" xlink:href="#ah"/><use transform="matrix(0.04320987654320988,0,0,0.04320987654320988,36.25308641975309,0)" xlink:href="#ae"/><use transform="matrix(0.04320987654320988,0,0,0.04320987654320988,44.89506172839506,0)" xlink:href="#ad"/><use transform="matrix(0.04320987654320988,0,0,0.04320987654320988,53.537037037037045,0)" xlink:href="#af"/><use transform="matrix(0.04320987654320988,0,0,0.04320987654320988,62.179012345679006,0)" xlink:href="#ar"/></g><g id="h"><use transform="matrix(0.04320987654320988,0,0,0.04320987654320988,0,0)" xlink:href="#am"/><use transform="matrix(0.04320987654320988,0,0,0.04320987654320988,11.19135802469136,0)" xlink:href="#ad"/><use transform="matrix(0.04320987654320988,0,0,0.04320987654320988,19.833333333333336,0)" xlink:href="#an"/><use transform="matrix(0.04320987654320988,0,0,0.04320987654320988,28.47530864197531,0)" xlink:href="#af"/><use transform="matrix(0.04320987654320988,0,0,0.04320987654320988,37.117283950617285,0)" xlink:href="#ao"/></g><path fill="#333" d="M59-47c-2 24 18 29 38 22v24C64 9 27 4 27-40v-127H5v-23h24l9-43h21v43h35v23H59v120" id="as"/><g id="i"><use transform="matrix(0.04320987654320988,0,0,0.04320987654320988,0,0)" xlink:href="#as"/><use transform="matrix(0.04320987654320988,0,0,0.04320987654320988,4.320987654320988,0)" xlink:href="#aj"/></g><path fill="#333" d="M210-169c-67 3-38 105-44 169h-31v-121c0-29-5-50-35-48C34-165 62-65 56 0H25l-1-190h30c1 10-1 24 2 32 10-44 99-50 107 0 11-21 27-35 58-36 85-2 47 119 55 194h-31v-121c0-29-5-49-35-48" id="at"/><g id="j"><use transform="matrix(0.04320987654320988,0,0,0.04320987654320988,0,0)" xlink:href="#at"/><use transform="matrix(0.04320987654320988,0,0,0.04320987654320988,12.919753086419755,0)" xlink:href="#aj"/><use transform="matrix(0.04320987654320988,0,0,0.04320987654320988,21.56172839506173,0)" xlink:href="#ae"/><use transform="matrix(0.04320987654320988,0,0,0.04320987654320988,30.203703703703713,0)" xlink:href="#ag"/><use transform="matrix(0.04320987654320988,0,0,0.04320987654320988,33.61728395061729,0)" xlink:href="#as"/><use transform="matrix(0.04320987654320988,0,0,0.04320987654320988,37.93827160493828,0)" xlink:href="#aj"/><use transform="matrix(0.04320987654320988,0,0,0.04320987654320988,46.580246913580254,0)" xlink:href="#ai"/></g><path fill="#333" d="M84 4C-5 8 30-112 23-190h32v120c0 31 7 50 39 49 72-2 45-101 50-169h31l1 190h-30c-1-10 1-25-2-33-11 22-28 36-60 37" id="au"/><g id="k"><use transform="matrix(0.04320987654320988,0,0,0.04320987654320988,0,0)" xlink:href="#am"/><use transform="matrix(0.04320987654320988,0,0,0.04320987654320988,11.19135802469136,0)" xlink:href="#au"/><use transform="matrix(0.04320987654320988,0,0,0.04320987654320988,19.833333333333336,0)" xlink:href="#ae"/><use transform="matrix(0.04320987654320988,0,0,0.04320987654320988,28.47530864197531,0)" xlink:href="#ae"/><use transform="matrix(0.04320987654320988,0,0,0.04320987654320988,37.117283950617285,0)" xlink:href="#ag"/><use transform="matrix(0.04320987654320988,0,0,0.04320987654320988,40.53086419753087,0)" xlink:href="#ae"/><use transform="matrix(0.04320987654320988,0,0,0.04320987654320988,49.17283950617284,0)" xlink:href="#ah"/></g><path fill="#333" d="M127-220V0H93v-220H8v-28h204v28h-85" id="av"/><g id="l"><use transform="matrix(0.04320987654320988,0,0,0.04320987654320988,0,0)" xlink:href="#av"/><use transform="matrix(0.04320987654320988,0,0,0.04320987654320988,7.734567901234567,0)" xlink:href="#ad"/><use transform="matrix(0.04320987654320988,0,0,0.04320987654320988,16.376543209876544,0)" xlink:href="#aq"/><use transform="matrix(0.04320987654320988,0,0,0.04320987654320988,24.154320987654323,0)" xlink:href="#as"/><use transform="matrix(0.04320987654320988,0,0,0.04320987654320988,28.47530864197531,0)" xlink:href="#ag"/><use transform="matrix(0.04320987654320988,0,0,0.04320987654320988,31.888888888888893,0)" xlink:href="#ae"/><use transform="matrix(0.04320987654320988,0,0,0.04320987654320988,40.53086419753087,0)" xlink:href="#ah"/></g><g id="m"><use transform="matrix(0.04320987654320988,0,0,0.04320987654320988,0,0)" xlink:href="#am"/><use transform="matrix(0.04320987654320988,0,0,0.04320987654320988,11.19135802469136,0)" xlink:href="#au"/><use transform="matrix(0.04320987654320988,0,0,0.04320987654320988,19.833333333333336,0)" xlink:href="#ae"/></g><path fill="#333" d="M106-169C34-169 62-67 57 0H25v-261h32l-1 103c12-21 28-36 61-36 89 0 53 116 60 194h-32v-121c2-32-8-49-39-48" id="aw"/><g id="n"><use transform="matrix(0.04320987654320988,0,0,0.04320987654320988,0,0)" xlink:href="#as"/><use transform="matrix(0.04320987654320988,0,0,0.04320987654320988,4.320987654320988,0)" xlink:href="#aw"/><use transform="matrix(0.04320987654320988,0,0,0.04320987654320988,12.962962962962964,0)" xlink:href="#ai"/><use transform="matrix(0.04320987654320988,0,0,0.04320987654320988,18.10493827160494,0)" xlink:href="#aj"/><use transform="matrix(0.04320987654320988,0,0,0.04320987654320988,26.746913580246915,0)" xlink:href="#au"/><use transform="matrix(0.04320987654320988,0,0,0.04320987654320988,35.38888888888889,0)" xlink:href="#ah"/><use transform="matrix(0.04320987654320988,0,0,0.04320987654320988,44.03086419753087,0)" xlink:href="#aw"/></g><g id="o"><use transform="matrix(0.04320987654320988,0,0,0.04320987654320988,0,0)" xlink:href="#ak"/><use transform="matrix(0.04320987654320988,0,0,0.04320987654320988,4.320987654320988,0)" xlink:href="#au"/><use transform="matrix(0.04320987654320988,0,0,0.04320987654320988,12.962962962962964,0)" xlink:href="#al"/><use transform="matrix(0.04320987654320988,0,0,0.04320987654320988,16.376543209876544,0)" xlink:href="#al"/></g><path fill="#333" d="M206 0h-36l-40-164L89 0H53L-1-190h32L70-26l43-164h34l41 164 42-164h31" id="ax"/><g id="p"><use transform="matrix(0.04320987654320988,0,0,0.04320987654320988,0,0)" xlink:href="#aw"/><use transform="matrix(0.04320987654320988,0,0,0.04320987654320988,8.641975308641976,0)" xlink:href="#an"/><use transform="matrix(0.04320987654320988,0,0,0.04320987654320988,17.283950617283953,0)" xlink:href="#ai"/><use transform="matrix(0.04320987654320988,0,0,0.04320987654320988,22.425925925925927,0)" xlink:href="#af"/><use transform="matrix(0.04320987654320988,0,0,0.04320987654320988,31.067901234567906,0)" xlink:href="#ax"/><use transform="matrix(0.04320987654320988,0,0,0.04320987654320988,42.25925925925927,0)" xlink:href="#an"/><use transform="matrix(0.04320987654320988,0,0,0.04320987654320988,50.90123456790124,0)" xlink:href="#ai"/><use transform="matrix(0.04320987654320988,0,0,0.04320987654320988,56.043209876543216,0)" xlink:href="#ad"/></g><g id="q"><use transform="matrix(0.04320987654320988,0,0,0.04320987654320988,0,0)" xlink:href="#as"/><use transform="matrix(0.04320987654320988,0,0,0.04320987654320988,4.320987654320988,0)" xlink:href="#ad"/><use transform="matrix(0.04320987654320988,0,0,0.04320987654320988,12.962962962962964,0)" xlink:href="#aq"/><use transform="matrix(0.04320987654320988,0,0,0.04320987654320988,20.740740740740744,0)" xlink:href="#as"/></g><path fill="#333" d="M185-189c-5-48-123-54-124 2 14 75 158 14 163 119 3 78-121 87-175 55-17-10-28-26-33-46l33-7c5 56 141 63 141-1 0-78-155-14-162-118-5-82 145-84 179-34 5 7 8 16 11 25" id="ay"/><path fill="#333" d="M115-194c55 1 70 41 70 98S169 2 115 4C84 4 66-9 55-30l1 105H24l-1-265h31l2 30c10-21 28-34 59-34zm-8 174c40 0 45-34 45-75s-6-73-45-74c-42 0-51 32-51 76 0 43 10 73 51 73" id="az"/><path fill="#333" d="M33-154v-36h34v36H33zM33 0v-36h34V0H33" id="aA"/><g id="r"><use transform="matrix(0.04320987654320988,0,0,0.04320987654320988,0,0)" xlink:href="#ay"/><use transform="matrix(0.04320987654320988,0,0,0.04320987654320988,10.370370370370372,0)" xlink:href="#as"/><use transform="matrix(0.04320987654320988,0,0,0.04320987654320988,14.691358024691363,0)" xlink:href="#an"/><use transform="matrix(0.04320987654320988,0,0,0.04320987654320988,23.333333333333336,0)" xlink:href="#ai"/><use transform="matrix(0.04320987654320988,0,0,0.04320987654320988,28.47530864197531,0)" xlink:href="#as"/><use transform="matrix(0.04320987654320988,0,0,0.04320987654320988,32.7962962962963,0)" xlink:href="#au"/><use transform="matrix(0.04320987654320988,0,0,0.04320987654320988,41.43827160493827,0)" xlink:href="#az"/><use transform="matrix(0.04320987654320988,0,0,0.04320987654320988,50.08024691358024,0)" xlink:href="#aA"/></g><path fill="#333" d="M108 0H70L1-190h34L89-25l56-165h34" id="aB"/><g id="s"><use transform="matrix(0.04320987654320988,0,0,0.04320987654320988,0,0)" xlink:href="#ac"/><use transform="matrix(0.04320987654320988,0,0,0.04320987654320988,10.370370370370372,0)" xlink:href="#ai"/><use transform="matrix(0.04320987654320988,0,0,0.04320987654320988,15.512345679012347,0)" xlink:href="#ad"/><use transform="matrix(0.04320987654320988,0,0,0.04320987654320988,24.154320987654323,0)" xlink:href="#aB"/><use transform="matrix(0.04320987654320988,0,0,0.04320987654320988,31.9320987654321,0)" xlink:href="#ag"/><use transform="matrix(0.04320987654320988,0,0,0.04320987654320988,35.345679012345684,0)" xlink:href="#aj"/><use transform="matrix(0.04320987654320988,0,0,0.04320987654320988,43.98765432098766,0)" xlink:href="#au"/><use transform="matrix(0.04320987654320988,0,0,0.04320987654320988,52.62962962962963,0)" xlink:href="#aq"/><use transform="matrix(0.04320987654320988,0,0,0.04320987654320988,60.40740740740741,0)" xlink:href="#al"/><use transform="matrix(0.04320987654320988,0,0,0.04320987654320988,63.820987654320994,0)" xlink:href="#ao"/></g><path fill="#333" d="M190 0L58-211 59 0H30v-248h39L202-35l-2-213h31V0h-41" id="aC"/><g id="t"><use transform="matrix(0.04320987654320988,0,0,0.04320987654320988,0,0)" xlink:href="#aC"/><use transform="matrix(0.04320987654320988,0,0,0.04320987654320988,11.19135802469136,0)" xlink:href="#aj"/><use transform="matrix(0.04320987654320988,0,0,0.04320987654320988,19.833333333333336,0)" xlink:href="#as"/></g><path fill="#333" d="M32 76v-337h29V76H32" id="aD"/><use transform="matrix(0.04320987654320988,0,0,0.04320987654320988,0,0)" xlink:href="#aD" id="u"/><g id="v"><use transform="matrix(0.04320987654320988,0,0,0.04320987654320988,0,0)" xlink:href="#am"/><use transform="matrix(0.04320987654320988,0,0,0.04320987654320988,11.19135802469136,0)" xlink:href="#au"/><use transform="matrix(0.04320987654320988,0,0,0.04320987654320988,19.833333333333336,0)" xlink:href="#ae"/><use transform="matrix(0.04320987654320988,0,0,0.04320987654320988,28.47530864197531,0)" xlink:href="#ae"/><use transform="matrix(0.04320987654320988,0,0,0.04320987654320988,37.117283950617285,0)" xlink:href="#ag"/><use transform="matrix(0.04320987654320988,0,0,0.04320987654320988,40.53086419753087,0)" xlink:href="#ae"/><use transform="matrix(0.04320987654320988,0,0,0.04320987654320988,49.17283950617284,0)" xlink:href="#ah"/></g><path fill="#333" d="M33 0v-248h34V0H33" id="aE"/><g id="w"><use transform="matrix(0.04320987654320988,0,0,0.04320987654320988,0,0)" xlink:href="#aE"/><use transform="matrix(0.04320987654320988,0,0,0.04320987654320988,4.320987654320988,0)" xlink:href="#ae"/><use transform="matrix(0.04320987654320988,0,0,0.04320987654320988,12.962962962962964,0)" xlink:href="#ag"/><use transform="matrix(0.04320987654320988,0,0,0.04320987654320988,16.376543209876544,0)" xlink:href="#as"/><use transform="matrix(0.04320987654320988,0,0,0.04320987654320988,20.69753086419753,0)" xlink:href="#ag"/><use transform="matrix(0.04320987654320988,0,0,0.04320987654320988,24.111111111111114,0)" xlink:href="#an"/><use transform="matrix(0.04320987654320988,0,0,0.04320987654320988,32.75308641975309,0)" xlink:href="#al"/></g><g id="x"><use transform="matrix(0.04320987654320988,0,0,0.04320987654320988,0,0)" xlink:href="#ac"/><use transform="matrix(0.04320987654320988,0,0,0.04320987654320988,10.370370370370372,0)" xlink:href="#aj"/><use transform="matrix(0.04320987654320988,0,0,0.04320987654320988,19.01234567901235,0)" xlink:href="#aq"/><use transform="matrix(0.04320987654320988,0,0,0.04320987654320988,26.790123456790127,0)" xlink:href="#as"/></g><g id="y"><use transform="matrix(0.04320987654320988,0,0,0.04320987654320988,0,0)" xlink:href="#av"/><use transform="matrix(0.04320987654320988,0,0,0.04320987654320988,7.734567901234567,0)" xlink:href="#aj"/></g><path fill="#333" d="M160-131c35 5 61 23 61 61C221 17 115-2 30 0v-248c76 3 177-17 177 60 0 33-19 50-47 57zm-97-11c50-1 110 9 110-42 0-47-63-36-110-37v79zm0 115c55-2 124 14 124-45 0-56-70-42-124-44v89" id="aF"/><g id="z"><use transform="matrix(0.04320987654320988,0,0,0.04320987654320988,0,0)" xlink:href="#aF"/><use transform="matrix(0.04320987654320988,0,0,0.04320987654320988,10.370370370370372,0)" xlink:href="#ai"/><use transform="matrix(0.04320987654320988,0,0,0.04320987654320988,15.512345679012347,0)" xlink:href="#ad"/><use transform="matrix(0.04320987654320988,0,0,0.04320987654320988,24.154320987654323,0)" xlink:href="#ax"/><use transform="matrix(0.04320987654320988,0,0,0.04320987654320988,35.345679012345684,0)" xlink:href="#ak"/><use transform="matrix(0.04320987654320988,0,0,0.04320987654320988,39.66666666666667,0)" xlink:href="#an"/><use transform="matrix(0.04320987654320988,0,0,0.04320987654320988,48.308641975308646,0)" xlink:href="#as"/><use transform="matrix(0.04320987654320988,0,0,0.04320987654320988,52.62962962962963,0)" xlink:href="#aw"/><use transform="matrix(0.04320987654320988,0,0,0.04320987654320988,61.27160493827161,0)" xlink:href="#ad"/><use transform="matrix(0.04320987654320988,0,0,0.04320987654320988,69.91358024691358,0)" xlink:href="#ai"/></g><g id="A"><use transform="matrix(0.04320987654320988,0,0,0.04320987654320988,0,0)" xlink:href="#aq"/><use transform="matrix(0.04320987654320988,0,0,0.04320987654320988,7.777777777777779,0)" xlink:href="#aj"/></g><path fill="#333" d="M96-169c-40 0-48 33-48 73s9 75 48 75c24 0 41-14 43-38l32 2c-6 37-31 61-74 61-59 0-76-41-82-99-10-93 101-131 147-64 4 7 5 14 7 22l-32 3c-4-21-16-35-41-35" id="aG"/><g id="B"><use transform="matrix(0.04320987654320988,0,0,0.04320987654320988,0,0)" xlink:href="#af"/><use transform="matrix(0.04320987654320988,0,0,0.04320987654320988,8.641975308641976,0)" xlink:href="#ad"/><use transform="matrix(0.04320987654320988,0,0,0.04320987654320988,17.283950617283953,0)" xlink:href="#aB"/><use transform="matrix(0.04320987654320988,0,0,0.04320987654320988,25.06172839506173,0)" xlink:href="#ag"/><use transform="matrix(0.04320987654320988,0,0,0.04320987654320988,28.47530864197531,0)" xlink:href="#aG"/><use transform="matrix(0.04320987654320988,0,0,0.04320987654320988,36.25308641975309,0)" xlink:href="#ad"/></g><g id="C"><use transform="matrix(0.04320987654320988,0,0,0.04320987654320988,0,0)" xlink:href="#ax"/><use transform="matrix(0.04320987654320988,0,0,0.04320987654320988,11.19135802469136,0)" xlink:href="#ag"/><use transform="matrix(0.04320987654320988,0,0,0.04320987654320988,14.60493827160494,0)" xlink:href="#al"/><use transform="matrix(0.04320987654320988,0,0,0.04320987654320988,18.01851851851852,0)" xlink:href="#al"/></g><path fill="#333" d="M115-194c53 0 69 39 70 98 0 66-23 100-70 100C84 3 66-7 56-30L54 0H23l1-261h32v101c10-23 28-34 59-34zm-8 174c40 0 45-34 45-75 0-40-5-75-45-74-42 0-51 32-51 76 0 43 10 73 51 73" id="aH"/><g id="D"><use transform="matrix(0.04320987654320988,0,0,0.04320987654320988,0,0)" xlink:href="#aH"/><use transform="matrix(0.04320987654320988,0,0,0.04320987654320988,8.641975308641976,0)" xlink:href="#ad"/></g><g id="E"><use transform="matrix(0.04320987654320988,0,0,0.04320987654320988,0,0)" xlink:href="#aB"/><use transform="matrix(0.04320987654320988,0,0,0.04320987654320988,7.777777777777779,0)" xlink:href="#ag"/><use transform="matrix(0.04320987654320988,0,0,0.04320987654320988,11.19135802469136,0)" xlink:href="#aq"/><use transform="matrix(0.04320987654320988,0,0,0.04320987654320988,18.96913580246914,0)" xlink:href="#ag"/><use transform="matrix(0.04320987654320988,0,0,0.04320987654320988,22.382716049382722,0)" xlink:href="#aH"/><use transform="matrix(0.04320987654320988,0,0,0.04320987654320988,31.024691358024693,0)" xlink:href="#al"/><use transform="matrix(0.04320987654320988,0,0,0.04320987654320988,34.43827160493828,0)" xlink:href="#ad"/></g><path fill="#333" d="M30 0v-248h33v221h125V0H30" id="aI"/><g id="F"><use transform="matrix(0.04320987654320988,0,0,0.04320987654320988,0,0)" xlink:href="#aI"/><use transform="matrix(0.04320987654320988,0,0,0.04320987654320988,8.641975308641976,0)" xlink:href="#aj"/><use transform="matrix(0.04320987654320988,0,0,0.04320987654320988,17.283950617283953,0)" xlink:href="#an"/><use transform="matrix(0.04320987654320988,0,0,0.04320987654320988,25.925925925925927,0)" xlink:href="#af"/></g><g id="G"><use transform="matrix(0.04320987654320988,0,0,0.04320987654320988,0,0)" xlink:href="#ac"/><use transform="matrix(0.04320987654320988,0,0,0.04320987654320988,10.370370370370372,0)" xlink:href="#ai"/><use transform="matrix(0.04320987654320988,0,0,0.04320987654320988,15.512345679012347,0)" xlink:href="#ag"/><use transform="matrix(0.04320987654320988,0,0,0.04320987654320988,18.92592592592593,0)" xlink:href="#aj"/><use transform="matrix(0.04320987654320988,0,0,0.04320987654320988,27.567901234567906,0)" xlink:href="#ai"/></g><path fill="#333" d="M68-38c1 34 0 65-14 84H32c9-13 17-26 17-46H33v-38h35" id="aJ"/><g id="H"><use transform="matrix(0.04320987654320988,0,0,0.04320987654320988,0,0)" xlink:href="#az"/><use transform="matrix(0.04320987654320988,0,0,0.04320987654320988,8.641975308641976,0)" xlink:href="#ai"/><use transform="matrix(0.04320987654320988,0,0,0.04320987654320988,13.783950617283953,0)" xlink:href="#aj"/><use transform="matrix(0.04320987654320988,0,0,0.04320987654320988,22.425925925925934,0)" xlink:href="#ak"/><use transform="matrix(0.04320987654320988,0,0,0.04320987654320988,26.746913580246915,0)" xlink:href="#ag"/><use transform="matrix(0.04320987654320988,0,0,0.04320987654320988,30.1604938271605,0)" xlink:href="#al"/><use transform="matrix(0.04320987654320988,0,0,0.04320987654320988,33.57407407407408,0)" xlink:href="#ad"/><use transform="matrix(0.04320987654320988,0,0,0.04320987654320988,42.21604938271606,0)" xlink:href="#aJ"/></g><g id="I"><use transform="matrix(0.04320987654320988,0,0,0.04320987654320988,0,0)" xlink:href="#aq"/><use transform="matrix(0.04320987654320988,0,0,0.04320987654320988,7.777777777777779,0)" xlink:href="#as"/><use transform="matrix(0.04320987654320988,0,0,0.04320987654320988,12.098765432098766,0)" xlink:href="#ad"/><use transform="matrix(0.04320987654320988,0,0,0.04320987654320988,20.74074074074074,0)" xlink:href="#az"/><use transform="matrix(0.04320987654320988,0,0,0.04320987654320988,29.382716049382715,0)" xlink:href="#aJ"/></g><g id="J"><use transform="matrix(0.04320987654320988,0,0,0.04320987654320988,0,0)" xlink:href="#an"/><use transform="matrix(0.04320987654320988,0,0,0.04320987654320988,8.641975308641976,0)" xlink:href="#ae"/><use transform="matrix(0.04320987654320988,0,0,0.04320987654320988,17.283950617283953,0)" xlink:href="#af"/></g><g id="K"><use transform="matrix(0.04320987654320988,0,0,0.04320987654320988,0,0)" xlink:href="#aq"/><use transform="matrix(0.04320987654320988,0,0,0.04320987654320988,7.777777777777779,0)" xlink:href="#as"/><use transform="matrix(0.04320987654320988,0,0,0.04320987654320988,12.098765432098766,0)" xlink:href="#an"/><use transform="matrix(0.04320987654320988,0,0,0.04320987654320988,20.74074074074074,0)" xlink:href="#ah"/><use transform="matrix(0.04320987654320988,0,0,0.04320987654320988,29.382716049382715,0)" xlink:href="#ad"/></g><path fill="#333" d="M140-251c81 0 123 46 123 126C263-46 219 4 140 4 59 4 17-45 17-125s42-126 123-126zm0 227c63 0 89-41 89-101s-29-99-89-99c-61 0-89 39-89 99S79-25 140-24" id="aK"/><path fill="#333" d="M87 75C49 33 22-17 22-94c0-76 28-126 65-167h31c-38 41-64 92-64 168S80 34 118 75H87" id="aL"/><path fill="#333" d="M109-170H84l-4-78h32zm-65 0H19l-4-78h33" id="aM"/><path fill="#333" d="M0 4l72-265h28L28 4H0" id="aN"/><path fill="#333" d="M33-261c38 41 65 92 65 168S71 34 33 75H2C39 34 66-17 66-93S39-220 2-261h31" id="aO"/><g id="L"><use transform="matrix(0.04320987654320988,0,0,0.04320987654320988,0,0)" xlink:href="#ac"/><use transform="matrix(0.04320987654320988,0,0,0.04320987654320988,10.370370370370372,0)" xlink:href="#aK"/><use transform="matrix(0.04320987654320988,0,0,0.04320987654320988,22.46913580246914,0)" xlink:href="#ay"/><use transform="matrix(0.04320987654320988,0,0,0.04320987654320988,32.83950617283951,0)" xlink:href="#av"/><use transform="matrix(0.04320987654320988,0,0,0.04320987654320988,42.302469135802475,0)" xlink:href="#aL"/><use transform="matrix(0.04320987654320988,0,0,0.04320987654320988,47.44444444444445,0)" xlink:href="#aM"/><use transform="matrix(0.04320987654320988,0,0,0.04320987654320988,52.9320987654321,0)" xlink:href="#aN"/><use transform="matrix(0.04320987654320988,0,0,0.04320987654320988,57.253086419753096,0)" xlink:href="#as"/><use transform="matrix(0.04320987654320988,0,0,0.04320987654320988,61.57407407407408,0)" xlink:href="#ad"/><use transform="matrix(0.04320987654320988,0,0,0.04320987654320988,70.21604938271605,0)" xlink:href="#aq"/><use transform="matrix(0.04320987654320988,0,0,0.04320987654320988,77.99382716049382,0)" xlink:href="#as"/><use transform="matrix(0.04320987654320988,0,0,0.04320987654320988,82.31481481481481,0)" xlink:href="#aN"/><use transform="matrix(0.04320987654320988,0,0,0.04320987654320988,86.6358024691358,0)" xlink:href="#ak"/><use transform="matrix(0.04320987654320988,0,0,0.04320987654320988,90.95679012345678,0)" xlink:href="#au"/><use transform="matrix(0.04320987654320988,0,0,0.04320987654320988,99.59876543209876,0)" xlink:href="#al"/><use transform="matrix(0.04320987654320988,0,0,0.04320987654320988,103.01234567901234,0)" xlink:href="#al"/><use transform="matrix(0.04320987654320988,0,0,0.04320987654320988,106.42592592592592,0)" xlink:href="#ap"/><use transform="matrix(0.04320987654320988,0,0,0.04320987654320988,111.5679012345679,0)" xlink:href="#aw"/><use transform="matrix(0.04320987654320988,0,0,0.04320987654320988,120.20987654320987,0)" xlink:href="#an"/><use transform="matrix(0.04320987654320988,0,0,0.04320987654320988,128.85185185185185,0)" xlink:href="#ai"/><use transform="matrix(0.04320987654320988,0,0,0.04320987654320988,133.99382716049382,0)" xlink:href="#af"/><use transform="matrix(0.04320987654320988,0,0,0.04320987654320988,142.6358024691358,0)" xlink:href="#ax"/><use transform="matrix(0.04320987654320988,0,0,0.04320987654320988,153.82716049382717,0)" xlink:href="#an"/><use transform="matrix(0.04320987654320988,0,0,0.04320987654320988,162.46913580246914,0)" xlink:href="#ai"/><use transform="matrix(0.04320987654320988,0,0,0.04320987654320988,167.61111111111111,0)" xlink:href="#ad"/><use transform="matrix(0.04320987654320988,0,0,0.04320987654320988,176.2530864197531,0)" xlink:href="#aM"/><use transform="matrix(0.04320987654320988,0,0,0.04320987654320988,181.74074074074073,0)" xlink:href="#aO"/></g><path fill="#333" d="M205 0l-28-72H64L36 0H1l101-248h38L239 0h-34zm-38-99l-47-123c-12 45-31 82-46 123h93" id="aP"/><g id="M"><use transform="matrix(0.04320987654320988,0,0,0.04320987654320988,0,0)" xlink:href="#aP"/><use transform="matrix(0.04320987654320988,0,0,0.04320987654320988,10.370370370370372,0)" xlink:href="#ak"/><use transform="matrix(0.04320987654320988,0,0,0.04320987654320988,14.691358024691363,0)" xlink:href="#as"/><use transform="matrix(0.04320987654320988,0,0,0.04320987654320988,19.01234567901235,0)" xlink:href="#ad"/><use transform="matrix(0.04320987654320988,0,0,0.04320987654320988,27.654320987654323,0)" xlink:href="#ai"/></g><g id="N"><use transform="matrix(0.04320987654320988,0,0,0.04320987654320988,0,0)" xlink:href="#ah"/><use transform="matrix(0.04320987654320988,0,0,0.04320987654320988,8.641975308641976,0)" xlink:href="#ag"/><use transform="matrix(0.04320987654320988,0,0,0.04320987654320988,12.055555555555557,0)" xlink:href="#aB"/><use transform="matrix(0.04320987654320988,0,0,0.04320987654320988,19.833333333333336,0)" xlink:href="#ad"/><use transform="matrix(0.04320987654320988,0,0,0.04320987654320988,28.47530864197531,0)" xlink:href="#ae"/></g><g id="O"><use transform="matrix(0.04320987654320988,0,0,0.04320987654320988,0,0)" xlink:href="#af"/><use transform="matrix(0.04320987654320988,0,0,0.04320987654320988,8.641975308641976,0)" xlink:href="#au"/><use transform="matrix(0.04320987654320988,0,0,0.04320987654320988,17.283950617283953,0)" xlink:href="#ai"/><use transform="matrix(0.04320987654320988,0,0,0.04320987654320988,22.425925925925927,0)" xlink:href="#an"/><use transform="matrix(0.04320987654320988,0,0,0.04320987654320988,31.067901234567906,0)" xlink:href="#as"/><use transform="matrix(0.04320987654320988,0,0,0.04320987654320988,35.38888888888889,0)" xlink:href="#ag"/><use transform="matrix(0.04320987654320988,0,0,0.04320987654320988,38.802469135802475,0)" xlink:href="#aj"/><use transform="matrix(0.04320987654320988,0,0,0.04320987654320988,47.44444444444445,0)" xlink:href="#ae"/></g><g id="P"><use transform="matrix(0.04320987654320988,0,0,0.04320987654320988,0,0)" xlink:href="#ac"/><use transform="matrix(0.04320987654320988,0,0,0.04320987654320988,10.370370370370372,0)" xlink:href="#aK"/><use transform="matrix(0.04320987654320988,0,0,0.04320987654320988,22.46913580246914,0)" xlink:href="#ay"/><use transform="matrix(0.04320987654320988,0,0,0.04320987654320988,32.83950617283951,0)" xlink:href="#av"/><use transform="matrix(0.04320987654320988,0,0,0.04320987654320988,42.302469135802475,0)" xlink:href="#aL"/><use transform="matrix(0.04320987654320988,0,0,0.04320987654320988,47.44444444444445,0)" xlink:href="#aM"/><use transform="matrix(0.04320987654320988,0,0,0.04320987654320988,52.9320987654321,0)" xlink:href="#aN"/><use transform="matrix(0.04320987654320988,0,0,0.04320987654320988,57.253086419753096,0)" xlink:href="#az"/><use transform="matrix(0.04320987654320988,0,0,0.04320987654320988,65.89506172839506,0)" xlink:href="#ai"/><use transform="matrix(0.04320987654320988,0,0,0.04320987654320988,71.03703703703704,0)" xlink:href="#aj"/><use transform="matrix(0.04320987654320988,0,0,0.04320987654320988,79.67901234567901,0)" xlink:href="#ak"/><use transform="matrix(0.04320987654320988,0,0,0.04320987654320988,84,0)" xlink:href="#ag"/><use transform="matrix(0.04320987654320988,0,0,0.04320987654320988,87.41358024691358,0)" xlink:href="#al"/><use transform="matrix(0.04320987654320988,0,0,0.04320987654320988,90.82716049382717,0)" xlink:href="#ad"/><use transform="matrix(0.04320987654320988,0,0,0.04320987654320988,99.46913580246914,0)" xlink:href="#aM"/><use transform="matrix(0.04320987654320988,0,0,0.04320987654320988,104.9567901234568,0)" xlink:href="#aO"/></g><g id="Q"><use transform="matrix(0.04320987654320988,0,0,0.04320987654320988,0,0)" xlink:href="#ac"/><use transform="matrix(0.04320987654320988,0,0,0.04320987654320988,10.370370370370372,0)" xlink:href="#aK"/><use transform="matrix(0.04320987654320988,0,0,0.04320987654320988,22.46913580246914,0)" xlink:href="#ay"/><use transform="matrix(0.04320987654320988,0,0,0.04320987654320988,32.83950617283951,0)" xlink:href="#av"/><use transform="matrix(0.04320987654320988,0,0,0.04320987654320988,42.302469135802475,0)" xlink:href="#aL"/><use transform="matrix(0.04320987654320988,0,0,0.04320987654320988,47.44444444444445,0)" xlink:href="#aM"/><use transform="matrix(0.04320987654320988,0,0,0.04320987654320988,52.9320987654321,0)" xlink:href="#aN"/><use transform="matrix(0.04320987654320988,0,0,0.04320987654320988,57.253086419753096,0)" xlink:href="#aq"/><use transform="matrix(0.04320987654320988,0,0,0.04320987654320988,65.03086419753086,0)" xlink:href="#as"/><use transform="matrix(0.04320987654320988,0,0,0.04320987654320988,69.35185185185185,0)" xlink:href="#an"/><use transform="matrix(0.04320987654320988,0,0,0.04320987654320988,77.99382716049382,0)" xlink:href="#ai"/><use transform="matrix(0.04320987654320988,0,0,0.04320987654320988,83.1358024691358,0)" xlink:href="#as"/><use transform="matrix(0.04320987654320988,0,0,0.04320987654320988,87.45679012345678,0)" xlink:href="#aM"/><use transform="matrix(0.04320987654320988,0,0,0.04320987654320988,92.94444444444443,0)" xlink:href="#aO"/></g><g id="R"><use transform="matrix(0.04320987654320988,0,0,0.04320987654320988,0,0)" xlink:href="#ac"/><use transform="matrix(0.04320987654320988,0,0,0.04320987654320988,10.370370370370372,0)" xlink:href="#aK"/><use transform="matrix(0.04320987654320988,0,0,0.04320987654320988,22.46913580246914,0)" xlink:href="#ay"/><use transform="matrix(0.04320987654320988,0,0,0.04320987654320988,32.83950617283951,0)" xlink:href="#av"/><use transform="matrix(0.04320987654320988,0,0,0.04320987654320988,42.302469135802475,0)" xlink:href="#aL"/><use transform="matrix(0.04320987654320988,0,0,0.04320987654320988,47.44444444444445,0)" xlink:href="#aM"/><use transform="matrix(0.04320987654320988,0,0,0.04320987654320988,52.9320987654321,0)" xlink:href="#aN"/><use transform="matrix(0.04320987654320988,0,0,0.04320987654320988,57.253086419753096,0)" xlink:href="#az"/><use transform="matrix(0.04320987654320988,0,0,0.04320987654320988,65.89506172839506,0)" xlink:href="#an"/><use transform="matrix(0.04320987654320988,0,0,0.04320987654320988,74.53703703703704,0)" xlink:href="#au"/><use transform="matrix(0.04320987654320988,0,0,0.04320987654320988,83.17901234567901,0)" xlink:href="#aq"/><use transform="matrix(0.04320987654320988,0,0,0.04320987654320988,90.95679012345678,0)" xlink:href="#ad"/><use transform="matrix(0.04320987654320988,0,0,0.04320987654320988,99.59876543209876,0)" xlink:href="#aM"/><use transform="matrix(0.04320987654320988,0,0,0.04320987654320988,105.08641975308642,0)" xlink:href="#aO"/></g><g id="S"><use transform="matrix(0.04320987654320988,0,0,0.04320987654320988,0,0)" xlink:href="#ac"/><use transform="matrix(0.04320987654320988,0,0,0.04320987654320988,10.370370370370372,0)" xlink:href="#aK"/><use transform="matrix(0.04320987654320988,0,0,0.04320987654320988,22.46913580246914,0)" xlink:href="#ay"/><use transform="matrix(0.04320987654320988,0,0,0.04320987654320988,32.83950617283951,0)" xlink:href="#av"/><use transform="matrix(0.04320987654320988,0,0,0.04320987654320988,42.302469135802475,0)" xlink:href="#aL"/><use transform="matrix(0.04320987654320988,0,0,0.04320987654320988,47.44444444444445,0)" xlink:href="#aM"/><use transform="matrix(0.04320987654320988,0,0,0.04320987654320988,52.9320987654321,0)" xlink:href="#aN"/><use transform="matrix(0.04320987654320988,0,0,0.04320987654320988,57.253086419753096,0)" xlink:href="#aG"/><use transform="matrix(0.04320987654320988,0,0,0.04320987654320988,65.03086419753086,0)" xlink:href="#an"/><use transform="matrix(0.04320987654320988,0,0,0.04320987654320988,73.67283950617283,0)" xlink:href="#ae"/><use transform="matrix(0.04320987654320988,0,0,0.04320987654320988,82.31481481481481,0)" xlink:href="#aG"/><use transform="matrix(0.04320987654320988,0,0,0.04320987654320988,90.09259259259258,0)" xlink:href="#ad"/><use transform="matrix(0.04320987654320988,0,0,0.04320987654320988,98.73456790123456,0)" xlink:href="#al"/><use transform="matrix(0.04320987654320988,0,0,0.04320987654320988,102.14814814814814,0)" xlink:href="#aM"/><use transform="matrix(0.04320987654320988,0,0,0.04320987654320988,107.6358024691358,0)" xlink:href="#aO"/></g><path fill="#333" d="M30 0v-248h187v28H63v79h144v27H63v87h162V0H30" id="aQ"/><g id="T"><use transform="matrix(0.04320987654320988,0,0,0.04320987654320988,0,0)" xlink:href="#aQ"/><use transform="matrix(0.04320987654320988,0,0,0.04320987654320988,10.370370370370372,0)" xlink:href="#aB"/><use transform="matrix(0.04320987654320988,0,0,0.04320987654320988,18.148148148148152,0)" xlink:href="#ad"/><use transform="matrix(0.04320987654320988,0,0,0.04320987654320988,26.790123456790127,0)" xlink:href="#ai"/><use transform="matrix(0.04320987654320988,0,0,0.04320987654320988,31.9320987654321,0)" xlink:href="#ao"/></g><path fill="#333" d="M27 0v-27h64v-190l-56 39v-29l58-41h29v221h61V0H27" id="aR"/><path fill="#333" d="M54-142c48-35 137-8 131 61C196 18 31 33 14-55l32-4c7 23 22 37 52 37 35-1 51-22 54-58 4-55-73-65-99-34H22l8-134h141v27H59" id="aS"/><g id="U"><use transform="matrix(0.04320987654320988,0,0,0.04320987654320988,0,0)" xlink:href="#aR"/><use transform="matrix(0.04320987654320988,0,0,0.04320987654320988,8.641975308641976,0)" xlink:href="#aS"/></g><g id="V"><use transform="matrix(0.04320987654320988,0,0,0.04320987654320988,0,0)" xlink:href="#at"/><use transform="matrix(0.04320987654320988,0,0,0.04320987654320988,12.919753086419755,0)" xlink:href="#ag"/><use transform="matrix(0.04320987654320988,0,0,0.04320987654320988,16.333333333333336,0)" xlink:href="#ae"/><use transform="matrix(0.04320987654320988,0,0,0.04320987654320988,24.97530864197531,0)" xlink:href="#ar"/></g><g id="W"><use transform="matrix(0.04320987654320988,0,0,0.04320987654320988,0,0)" xlink:href="#aI"/><use transform="matrix(0.04320987654320988,0,0,0.04320987654320988,8.641975308641976,0)" xlink:href="#aj"/><use transform="matrix(0.04320987654320988,0,0,0.04320987654320988,17.283950617283953,0)" xlink:href="#ah"/></g><g id="X"><use transform="matrix(0.04320987654320988,0,0,0.04320987654320988,0,0)" xlink:href="#as"/><use transform="matrix(0.04320987654320988,0,0,0.04320987654320988,4.320987654320988,0)" xlink:href="#aj"/></g><g id="Y"><use transform="matrix(0.04320987654320988,0,0,0.04320987654320988,0,0)" xlink:href="#aF"/><use transform="matrix(0.04320987654320988,0,0,0.04320987654320988,10.370370370370372,0)" xlink:href="#ai"/><use transform="matrix(0.04320987654320988,0,0,0.04320987654320988,15.512345679012347,0)" xlink:href="#ad"/><use transform="matrix(0.04320987654320988,0,0,0.04320987654320988,24.154320987654323,0)" xlink:href="#ax"/><use transform="matrix(0.04320987654320988,0,0,0.04320987654320988,35.345679012345684,0)" xlink:href="#ak"/><use transform="matrix(0.04320987654320988,0,0,0.04320987654320988,39.66666666666667,0)" xlink:href="#an"/><use transform="matrix(0.04320987654320988,0,0,0.04320987654320988,48.308641975308646,0)" xlink:href="#as"/><use transform="matrix(0.04320987654320988,0,0,0.04320987654320988,52.62962962962963,0)" xlink:href="#aw"/><use transform="matrix(0.04320987654320988,0,0,0.04320987654320988,61.27160493827161,0)" xlink:href="#ad"/><use transform="matrix(0.04320987654320988,0,0,0.04320987654320988,69.91358024691358,0)" xlink:href="#ai"/></g><path fill="#333" d="M212-179c-10-28-35-45-73-45-59 0-87 40-87 99 0 60 29 101 89 101 43 0 62-24 78-52l27 14C228-24 195 4 139 4 59 4 22-46 18-125c-6-104 99-153 187-111 19 9 31 26 39 46" id="aT"/><path fill="#333" d="M143 0L79-87 56-68V0H24v-261h32v163l83-92h37l-77 82L181 0h-38" id="aU"/><g id="Z"><use transform="matrix(0.04320987654320988,0,0,0.04320987654320988,0,0)" xlink:href="#aT"/><use transform="matrix(0.04320987654320988,0,0,0.04320987654320988,11.19135802469136,0)" xlink:href="#aw"/><use transform="matrix(0.04320987654320988,0,0,0.04320987654320988,19.833333333333336,0)" xlink:href="#ad"/><use transform="matrix(0.04320987654320988,0,0,0.04320987654320988,28.47530864197531,0)" xlink:href="#aG"/><use transform="matrix(0.04320987654320988,0,0,0.04320987654320988,36.25308641975309,0)" xlink:href="#aU"/></g><g id="aa"><use transform="matrix(0.04320987654320988,0,0,0.04320987654320988,0,0)" xlink:href="#av"/><use transform="matrix(0.04320987654320988,0,0,0.04320987654320988,7.734567901234567,0)" xlink:href="#ad"/><use transform="matrix(0.04320987654320988,0,0,0.04320987654320988,16.376543209876544,0)" xlink:href="#at"/><use transform="matrix(0.04320987654320988,0,0,0.04320987654320988,29.296296296296298,0)" xlink:href="#az"/><use transform="matrix(0.04320987654320988,0,0,0.04320987654320988,37.93827160493827,0)" xlink:href="#ad"/><use transform="matrix(0.04320987654320988,0,0,0.04320987654320988,46.58024691358024,0)" xlink:href="#ai"/><use transform="matrix(0.04320987654320988,0,0,0.04320987654320988,51.722222222222214,0)" xlink:href="#an"/><use transform="matrix(0.04320987654320988,0,0,0.04320987654320988,60.364197530864196,0)" xlink:href="#as"/><use transform="matrix(0.04320987654320988,0,0,0.04320987654320988,64.68518518518519,0)" xlink:href="#au"/><use transform="matrix(0.04320987654320988,0,0,0.04320987654320988,73.32716049382717,0)" xlink:href="#ai"/><use transform="matrix(0.04320987654320988,0,0,0.04320987654320988,78.46913580246914,0)" xlink:href="#ad"/></g><g id="ab"><use transform="matrix(0.04320987654320988,0,0,0.04320987654320988,0,0)" xlink:href="#ac"/><use transform="matrix(0.04320987654320988,0,0,0.04320987654320988,10.370370370370372,0)" xlink:href="#aK"/><use transform="matrix(0.04320987654320988,0,0,0.04320987654320988,22.46913580246914,0)" xlink:href="#ay"/><use transform="matrix(0.04320987654320988,0,0,0.04320987654320988,32.83950617283951,0)" xlink:href="#av"/><use transform="matrix(0.04320987654320988,0,0,0.04320987654320988,42.302469135802475,0)" xlink:href="#aL"/><use transform="matrix(0.04320987654320988,0,0,0.04320987654320988,47.44444444444445,0)" xlink:href="#aM"/><use transform="matrix(0.04320987654320988,0,0,0.04320987654320988,52.9320987654321,0)" xlink:href="#aN"/><use transform="matrix(0.04320987654320988,0,0,0.04320987654320988,57.253086419753096,0)" xlink:href="#ai"/><use transform="matrix(0.04320987654320988,0,0,0.04320987654320988,62.39506172839507,0)" xlink:href="#ad"/><use transform="matrix(0.04320987654320988,0,0,0.04320987654320988,71.03703703703704,0)" xlink:href="#aq"/><use transform="matrix(0.04320987654320988,0,0,0.04320987654320988,78.81481481481481,0)" xlink:href="#ad"/><use transform="matrix(0.04320987654320988,0,0,0.04320987654320988,87.45679012345678,0)" xlink:href="#as"/><use transform="matrix(0.04320987654320988,0,0,0.04320987654320988,91.77777777777777,0)" xlink:href="#aM"/><use transform="matrix(0.04320987654320988,0,0,0.04320987654320988,97.26543209876542,0)" xlink:href="#aO"/></g></defs></g></svg>